<svg id="Layer_4" data-name="Layer 4" xmlns="http://www.w3.org/2000/svg" viewBox="0 0 36 36"><defs><style>.cls-1{fill:#019587;}</style></defs><title>MP_menu_icons</title><path class="cls-1" d="M17.47,29.16A2.46,2.46,0,1,0,15,26.7,2.46,2.46,0,0,0,17.47,29.16Zm0-3.86a1.41,1.41,0,1,1-1.41,1.41A1.41,1.41,0,0,1,17.47,25.29Z"/><path class="cls-1" d="M21.48,26.7a4,4,0,1,0-4,4A4,4,0,0,0,21.48,26.7Zm-4-3a3,3,0,1,1-3,3A3,3,0,0,1,17.47,23.75Z"/><path class="cls-1" d="M29.06,18.84H5.89a.91.91,0,0,0-.91.91v1.55a12.5,12.5,0,0,0,25,0V19.75A.91.91,0,0,0,29.06,18.84Zm-5.27,12V26.7a6.32,6.32,0,1,0-12.64,0v4.15A11.4,11.4,0,0,1,6,21.29V19.88h22.9v1.41A11.4,11.4,0,0,1,23.79,30.85ZM12.2,26.7a5.27,5.27,0,0,1,10.54,0v4.78a11.56,11.56,0,0,1-5.27,1.26,11.4,11.4,0,0,1-5.27-1.26Z"/><path class="cls-1" d="M31.38,8.79H3.57a1.69,1.69,0,0,0-1.68,1.68v6.18a1.68,1.68,0,0,0,1.68,1.68H31.38a1.69,1.69,0,0,0,1.68-1.68V10.48A1.69,1.69,0,0,0,31.38,8.79ZM2.93,10.48a.64.64,0,0,1,.63-.63H31.38a.64.64,0,0,1,.63.63v6.18a.64.64,0,0,1-.63.63H3.57a.64.64,0,0,1-.63-.63Z"/><path class="cls-1" d="M29.06,15.25a.79.79,0,0,0,.91-.91.91.91,0,1,0-1.82,0A.79.79,0,0,0,29.06,15.25Z"/></svg>