<?xml version="1.0" encoding="utf-8"?>
<!-- Generator: Adobe Illustrator 20.0.0, SVG Export Plug-In . SVG Version: 6.00 Build 0)  -->
<svg version="1.1" id="Layer_1" xmlns="http://www.w3.org/2000/svg" xmlns:xlink="http://www.w3.org/1999/xlink" x="0px" y="0px"
	 viewBox="0 0 55 55" style="enable-background:new 0 0 55 55;" xml:space="preserve">
<style type="text/css">
	.st0{fill:none;stroke:#009587;stroke-width:0.5;stroke-miterlimit:10;}
	.st1{fill:#009587;}
</style>
<polygon class="st0" points="-119.8,-15.5 -118.7,-13.5 -119.8,-11.5 -122.2,-11.5 -123.3,-13.5 -122.2,-15.5 "/>
<g>
	<rect x="4.7" y="12.1" class="st0" width="20.8" height="13.1"/>
	<rect x="29.5" y="12.1" class="st0" width="20.8" height="13.1"/>
	<rect x="4.7" y="29.8" class="st0" width="20.8" height="13.1"/>
	<rect x="29.5" y="29.8" class="st0" width="20.8" height="13.1"/>
	<polygon class="st1" points="16.7,18.6 13.5,20.5 13.5,16.8 	"/>
	<polygon class="st1" points="41.5,18.6 38.3,20.5 38.3,16.8 	"/>
	<polygon class="st1" points="16.7,36.4 13.5,38.2 13.5,34.5 	"/>
	<polygon class="st1" points="41.5,36.4 38.3,38.2 38.3,34.5 	"/>
</g>
<rect x="82.1" y="10.9" class="st0" width="14.3" height="9"/>
<rect x="99" y="10.9" class="st0" width="14.3" height="9"/>
<rect x="116" y="10.9" class="st0" width="14.3" height="9"/>
<rect x="82.1" y="23" class="st0" width="14.3" height="9"/>
<rect x="99" y="23" class="st0" width="14.3" height="9"/>
<rect x="116" y="23" class="st0" width="14.3" height="9"/>
<rect x="82.1" y="35.2" class="st0" width="14.3" height="9"/>
<rect x="99" y="35.2" class="st0" width="14.3" height="9"/>
<rect x="116" y="35.2" class="st0" width="14.3" height="9"/>
<polygon class="st1" points="90.3,15.4 88.1,16.6 88.1,14.1 "/>
<polygon class="st1" points="107.2,15.4 105.1,16.6 105.1,14.1 "/>
<polygon class="st1" points="124.2,15.4 122,16.6 122,14.1 "/>
<polygon class="st1" points="90.3,27.5 88.1,28.7 88.1,26.3 "/>
<polygon class="st1" points="107.2,27.5 105.1,28.7 105.1,26.3 "/>
<polygon class="st1" points="124.2,27.5 122,28.7 122,26.3 "/>
<polygon class="st1" points="90.3,39.6 88.1,40.9 88.1,38.4 "/>
<polygon class="st1" points="107.2,39.6 105.1,40.9 105.1,38.4 "/>
<polygon class="st1" points="124.2,39.6 122,40.9 122,38.4 "/>
</svg>
