<svg id="Layer_4" data-name="Layer 4" xmlns="http://www.w3.org/2000/svg" viewBox="0 0 36 36"><defs><style>.cls-1{fill:#019587;}</style></defs><title>MP_menu_icons</title><path class="cls-1" d="M33.29,28.34a.64.64,0,0,0,.64-.64V8.64A.64.64,0,0,0,33.29,8H2.71a.64.64,0,0,0-.64.64V27.71a.64.64,0,0,0,.64.64H17.36v2.54H12.9a.64.64,0,1,0,0,1.27H23.1a.64.64,0,1,0,0-1.27H18.64V28.34ZM3.35,27.07V9.27h29.3v17.8Z"/><path class="cls-1" d="M8.29,16H10v4.3H12.8v1.41H8.29Z"/><path class="cls-1" d="M13.67,16h1.77v5.71H13.67Z"/><path class="cls-1" d="M16.15,16H18l1.28,4.11L20.54,16h1.79l-2.12,5.71H18.3Z"/><path class="cls-1" d="M22.9,16h4.73v1.22h-3v.91h2.74v1.16H24.67v1.13h3v1.29H22.9Z"/></svg>