<svg id="Layer_1" data-name="Layer 1" xmlns="http://www.w3.org/2000/svg" viewBox="0 0 133.87 85"><defs><style>.cls-1{fill:none;stroke:#039688;stroke-miterlimit:10;stroke-width:3px;}</style></defs><title>Untitled-9</title><path class="cls-1" d="M37,3c-8.44,0-15.34,8.44-15.34,19.17S28.55,41.34,37,41.34c3.07,0,6-1.53,9.11-3.83a22.76,22.76,0,0,1-1.44-7.67c0-6.9,2.2-12.37,5.28-17.74C47.63,6.73,42.36,3,37,3h0ZM98.34,3C93,3,87.7,6.73,85.39,12.1c3.07,5.37,5.28,10.84,5.28,17.74a22.76,22.76,0,0,1-1.44,7.67c3.07,2.3,6,3.83,9.11,3.83,8.44,0,15.34-8.44,15.34-19.17S106.77,3,98.34,3h0ZM67.66,10.66c-8.47,0-15.34,8.58-15.34,19.17S59.19,49,67.66,49,83,40.42,83,29.83,76.14,10.66,67.66,10.66ZM20.93,41.34c-7.67.77-14.62,6.9-14.62,15.34V72h23V64.34A21.49,21.49,0,0,1,35.55,49a22.87,22.87,0,0,1-14.62-7.67h0Zm93.47,0A22.87,22.87,0,0,1,99.78,49,21.49,21.49,0,0,1,106,64.34V72h23V56.68c0-8.44-6.95-14.57-14.62-15.34h0ZM51.6,49C43.93,49.77,37,55.91,37,64.34V79.68H98.34V64.34c0-8.44-6.95-14.57-14.62-15.34-4.6,4.6-9.92,7.67-16.06,7.67S56.2,53.61,51.6,49Z"/></svg>